<svg width="32" height="32" viewBox="0 0 32 32" fill="none" xmlns="http://www.w3.org/2000/svg">
<rect width="32" height="32" rx="16" fill="white"/>
<path d="M18.0247 17.0215V11.5693H15.8398V18.7052C16.7018 18.3445 17.4634 17.7633 18.0247 17.0215V17.0215Z" fill="#A72037"/>
<path d="M12.834 18.9462C13.1947 19.0263 13.5556 19.0664 13.9365 19.0664C14.3174 19.0664 14.6781 19.0263 15.039 18.9462V15.1377H12.834V18.9462Z" fill="#A72037"/>
<path d="M12.0307 18.7062V13.9355H9.8457V17.0223C10.4071 17.7641 11.1687 18.3453 12.0307 18.7062V18.7062Z" fill="#A72037"/>
<path d="M25 23.4561L19.5479 18.004C20.3697 16.8614 20.8709 15.4583 20.8709 13.935C20.8709 10.1064 17.7639 6.97949 13.9154 6.97949C10.0668 6.97949 7 10.1064 7 13.935C7 17.7635 10.1069 20.8904 13.9555 20.8904C15.4788 20.8904 16.8821 20.3893 18.0245 19.5675L23.4766 25.0196L25 23.4561ZM8.44317 13.935C8.44317 10.9083 10.9086 8.44275 13.9354 8.44275C16.9621 8.44275 19.4276 10.9082 19.4276 13.935C19.4276 16.9617 16.9622 19.4272 13.9354 19.4272C10.9087 19.4272 8.44317 16.9616 8.44317 13.935Z" fill="#A72037"/>
</svg>
