<svg width="32" height="32" viewBox="0 0 32 32" fill="none" xmlns="http://www.w3.org/2000/svg">
<rect width="32" height="32" rx="16" fill="white"/>
<path d="M8.73509 18.2026C9.0345 18.2026 9.27721 18.4461 9.27721 18.7464V22.8249H22.2893C22.5887 22.8249 22.8314 22.5814 22.8314 22.2811V7.54391C22.8314 7.24349 23.0741 7 23.3735 7H24.4579C24.7573 7 25 7.24348 25 7.54391V23.3687C25 24.2697 24.2718 25.0001 23.3735 25.0001H8.62653C7.72818 25.0001 7 24.2697 7 23.3687V18.7464C7 18.4461 7.24272 18.2026 7.54212 18.2026H8.73509Z" fill="#A72037"/>
<path d="M19.4472 12.5299H20.5197C21.1656 12.5299 21.6895 12.0045 21.6895 11.3565V10.2808C21.6895 9.63283 21.1656 9.10742 20.5197 9.10742H19.4472C18.8012 9.10742 18.2773 9.63283 18.2773 10.2808V11.3565C18.2773 12.0045 18.8012 12.5299 19.4472 12.5299Z" fill="#A72037"/>
<path d="M20.5197 17.0981H19.4472C18.8012 17.0981 18.2773 16.5729 18.2773 15.9247V14.8492C18.2773 14.2011 18.8012 13.6758 19.4472 13.6758H20.5197C21.1656 13.6758 21.6895 14.2011 21.6895 14.8492V15.9247C21.6895 16.5729 21.1656 17.0981 20.5197 17.0981Z" fill="#A72037"/>
<path d="M14.8925 21.6665H15.9648C16.6109 21.6665 17.1347 21.1412 17.1347 20.4931V19.4176C17.1347 18.7694 16.6109 18.2441 15.9648 18.2441H14.8925C14.2464 18.2441 13.7227 18.7694 13.7227 19.4176V20.4931C13.7227 21.1412 14.2464 21.6665 14.8925 21.6665Z" fill="#A72037"/>
<path d="M19.4472 21.6665H20.5197C21.1656 21.6665 21.6895 21.1412 21.6895 20.4931V19.4176C21.6895 18.7694 21.1656 18.2441 20.5197 18.2441H19.4472C18.8012 18.2441 18.2773 18.7694 18.2773 19.4176V20.4931C18.2773 21.1412 18.8012 21.6665 19.4472 21.6665Z" fill="#A72037"/>
<path d="M8.31728 12.7498L9.83678 11.2253L11.5542 12.9483H11.5843C11.5834 12.9442 11.5826 12.9401 11.5817 12.9359C11.5808 12.9317 11.5799 12.9276 11.5791 12.9234C11.5712 12.8861 11.563 12.8489 11.5542 12.8119C11.4968 12.5688 11.4199 12.3301 11.3242 12.0983C11.1048 11.5671 10.79 11.0812 10.396 10.6646C10.3677 10.6346 10.3391 10.6051 10.31 10.5759C9.87556 10.1402 9.3598 9.79464 8.79219 9.55876C8.71484 9.52655 8.63659 9.49649 8.55784 9.46872C8.05857 9.29207 7.53255 9.20152 7.00195 9.20152V7.04199C7.74013 7.04199 8.47249 7.16208 9.17061 7.39644C9.32075 7.44691 9.46938 7.50258 9.61624 7.56358C10.445 7.90786 11.1981 8.41259 11.8325 9.04895C12.3075 9.52553 12.7091 10.0688 13.025 10.6609C13.0448 10.698 13.0643 10.7354 13.0836 10.7731C13.1667 10.9359 13.2432 11.1023 13.3132 11.2719C13.3741 11.4191 13.4297 11.5681 13.4799 11.7188C13.6081 12.1029 13.7019 12.4973 13.7606 12.8974C13.762 12.9069 13.7634 12.9165 13.7648 12.9262C13.7658 12.9335 13.7669 12.9409 13.7679 12.9484H13.8115L15.4581 11.2965L16.9776 12.8208L12.5221 17.1817L8.31728 12.7498Z" fill="#A72037"/>
</svg>
