<svg width="72" height="78" viewBox="0 0 72 78" fill="none" xmlns="http://www.w3.org/2000/svg">
<path d="M4.99041 20.2781C9.87268 11.9853 18.0069 5.91047 27.3086 3.60666V3.6078C28.9083 3.21062 30.5509 2.92364 32.1954 2.7503L31.9268 0.194336C30.5923 0.334384 29.2642 0.567423 27.9504 0.846367L27.9384 0.802171L26.69 1.11097C16.7218 3.57848 8.00552 10.0891 2.77458 18.974L2.60123 19.2685C2.5909 19.2679 2.58172 19.2656 2.57139 19.2656C1.15081 19.2656 0 20.4164 0 21.837C0 23.2576 1.15081 24.4084 2.57139 24.4084C3.99197 24.4084 5.14278 23.2576 5.14278 21.837C5.14278 21.3819 5.01421 20.96 4.807 20.5886L4.99041 20.2781Z" fill="#FAFAFA"/>
<path d="M51.526 6.06282L52.6355 3.74225C51.0387 2.97715 49.3748 2.32052 47.6918 1.78564L46.9141 4.23596C48.4839 4.73531 50.0359 5.34946 51.526 6.06297L51.526 6.06282Z" fill="#FAFAFA"/>
<path d="M42.0909 3.06499L42.5231 0.530926C40.7886 0.235334 39.0105 0.0551012 37.2364 0L37.1543 2.56904C38.8113 2.62242 40.4712 2.78944 42.0911 3.06495L42.0909 3.06499Z" fill="#FAFAFA"/>
<path d="M59.584 11.3538L61.2708 9.4126C60.0058 8.31345 58.6558 7.28717 57.2593 6.36426L55.8398 8.50865C57.1433 9.37018 58.4031 10.3282 59.5838 11.3538H59.584Z" fill="#FAFAFA"/>
<path d="M19.3652 73.3593C20.962 74.1244 22.6259 74.781 24.3089 75.3159L25.0867 72.8656C23.5168 72.3668 21.9648 71.7532 20.4748 71.0386L19.3652 73.3593Z" fill="#FAFAFA"/>
<path d="M29.4746 76.5712C31.2092 76.8668 32.9873 77.047 34.7614 77.1021L34.8435 74.5331C33.1865 74.4803 31.5253 74.3133 29.9051 74.0366L29.4746 76.5712Z" fill="#FAFAFA"/>
<path d="M10.7285 67.6902C11.9936 68.7894 13.3435 69.8156 14.74 70.7385L16.1595 68.5942C14.856 67.7326 13.5972 66.7746 12.4166 65.749L10.7285 67.6902Z" fill="#FAFAFA"/>
<path d="M69.4278 52.6938C68.0073 52.6938 66.8564 53.8447 66.8564 55.2652C66.8564 55.7204 66.985 56.1423 67.1922 56.5136L67.0097 56.8247C62.128 65.1175 53.9932 71.1935 44.6915 73.4961V73.495C43.0918 73.8922 41.4492 74.1792 39.8047 74.3525L40.0733 76.9085C41.4078 76.7684 42.7359 76.5354 44.0497 76.2564L44.0612 76.3012L45.3096 75.9924C55.2789 73.5249 63.9955 67.0143 69.2264 58.1279L69.3998 57.8334C69.409 57.8346 69.4181 57.8369 69.4285 57.8369C70.8491 57.8369 71.9999 56.686 71.9999 55.2655C71.9999 53.8449 70.8491 52.6941 69.4285 52.6941L69.4278 52.6938Z" fill="#FAFAFA"/>
<path d="M65.5707 38.5513C65.5707 38.5513 52.8297 54.6232 36.9386 55.2389C36.6304 55.2521 36.309 55.2647 36.0002 55.2647C35.6914 55.2647 35.37 55.2521 35.0617 55.2389C19.1706 54.6218 6.42969 38.5513 6.42969 38.5513C6.42969 54.8789 19.6723 68.1223 36.0007 68.1223C52.329 68.1223 65.5717 54.8796 65.5717 38.5513H65.5707Z" fill="#FAFAFA"/>
<path d="M35.0608 21.8639C35.369 21.8507 35.6904 21.838 35.9992 21.838C36.308 21.838 36.6294 21.8507 36.9376 21.8639C52.8288 22.4809 65.5697 38.5515 65.5697 38.5515C65.5697 22.2239 52.327 8.98047 35.9987 8.98047C19.6704 8.98047 6.42773 22.2231 6.42773 38.5515C6.42773 38.5515 19.1688 22.4795 35.0598 21.8639H35.0608Z" fill="#FAFAFA"/>
<path d="M42.4292 38.5515C42.4292 42.1021 39.5513 44.98 36.0007 44.98C32.4502 44.98 29.5723 42.1021 29.5723 38.5515C29.5723 35.0009 32.4502 32.123 36.0007 32.123C39.5513 32.123 42.4292 35.0009 42.4292 38.5515Z" fill="#FAFAFA"/>
<path d="M28.7964 33.1675L23.3179 27.689C21.0742 30.3052 19.6255 33.6176 19.3477 37.2663H27.1015C27.319 35.7412 27.9154 34.3453 28.7964 33.1675Z" fill="#FAFAFA"/>
<path d="M34.7136 29.6528V21.8989C31.066 22.1779 27.7461 23.6179 25.1289 25.8628L30.6149 31.3489C31.7927 30.4678 33.1887 29.8714 34.7137 29.6528H34.7136Z" fill="#FAFAFA"/>
<path d="M46.8698 25.8619C44.252 23.6181 40.9327 22.177 37.2852 21.8979V29.6518C38.8102 29.8705 40.2061 30.4668 41.384 31.3479L46.8698 25.8619Z" fill="#FAFAFA"/>
<path d="M28.7976 43.9352C27.9171 42.7586 27.3201 41.3615 27.1015 39.8364H19.3477C19.6255 43.4852 21.0742 46.797 23.3179 49.4137L28.7976 43.9352Z" fill="#FAFAFA"/>
<path d="M25.1289 51.2409C27.7467 53.4846 31.066 54.9258 34.7136 55.2048V47.451C33.1885 47.2323 31.7926 46.6359 30.6148 45.7549L25.1289 51.2409Z" fill="#FAFAFA"/>
<path d="M44.898 37.2658H52.6519C52.3741 33.6171 50.9266 30.3053 48.6817 27.6885L43.2031 33.167C44.083 34.3448 44.6794 35.7407 44.898 37.2658Z" fill="#FAFAFA"/>
<path d="M43.2031 43.9352L48.6817 49.4137C50.9254 46.7975 52.374 43.4852 52.6519 39.8364H44.898C44.6805 41.3615 44.0841 42.7574 43.2031 43.9352Z" fill="#FAFAFA"/>
<path d="M37.2853 47.45V55.2038C40.9329 54.9249 44.2527 53.4848 46.87 51.2399L41.384 45.7539C40.2062 46.635 38.8102 47.2314 37.2852 47.45H37.2853Z" fill="#FAFAFA"/>
</svg>
