<svg width="72" height="79" viewBox="0 0 72 79" fill="none" xmlns="http://www.w3.org/2000/svg">
<path d="M42.5445 49.0916C42.5445 50.899 41.0796 52.3638 39.2722 52.3638C37.4648 52.3638 36 50.8989 36 49.0916C36 47.2843 37.4649 45.8193 39.2722 45.8193C41.0797 45.8193 42.5445 47.2843 42.5445 49.0916Z" fill="#FBFBFB"/>
<path d="M62.1812 49.0916C62.1812 50.899 60.7163 52.3638 58.909 52.3638C57.1015 52.3638 55.6367 50.8989 55.6367 49.0916C55.6367 47.2843 57.1016 45.8193 58.909 45.8193C60.7164 45.8193 62.1812 47.2843 62.1812 49.0916Z" fill="#FBFBFB"/>
<path d="M34.1798 19.6372L32.7266 13.0913H19.6348V19.6372H27.4777L32.5661 42.545H66.9086L71.9998 19.6372H34.1798Z" fill="#FBFBFB"/>
<path d="M52.3643 13.0904V6.54589C52.3643 2.94632 49.4168 0 45.8185 0H6.54589C2.94772 0 0 2.94632 0 6.54589V71.9996C0 75.5991 2.94755 78.5455 6.54589 78.5455H45.8185C49.4166 78.5455 52.3643 75.5991 52.3643 71.9996V58.9092H26.1815C18.9494 58.9092 13.0911 53.0441 13.0911 45.8188V6.54624H45.8171V13.0907L52.3643 13.0904ZM29.4548 65.4544C31.2641 65.4544 32.7284 66.9172 32.7284 68.7266C32.7284 70.536 31.2649 71.9989 29.4548 71.9989H22.9103C21.1009 71.9989 19.6366 70.536 19.6366 68.7266C19.6366 66.9172 21.1002 65.4544 22.9103 65.4544H29.4548Z" fill="#FBFBFB"/>
</svg>
