<svg width="72" height="72" viewBox="0 0 72 72" fill="none" xmlns="http://www.w3.org/2000/svg">
<path d="M7.19922 63.5999L34.7992 71.6495V64.5502L7.19922 56.4995V63.5999Z" fill="#FAFAFA"/>
<path d="M64.7992 56.5L37.1992 64.5507V71.65L64.7992 63.6004V56.5Z" fill="#FAFAFA"/>
<path d="M13.1992 6.0002H17.9992L13.1992 1.2002V6.0002Z" fill="#FAFAFA"/>
<path d="M66 6.0002H70.8L66 1.2002V6.0002Z" fill="#FAFAFA"/>
<path d="M71.9995 8.4H63.5995V0H52.7995V26.4H59.9995V28.8C59.9995 30.7849 58.3844 32.4 56.3995 32.4H52.7995C49.4909 32.4 46.7995 35.0914 46.7995 38.4V40.3034L44.0482 37.552L42.3516 39.2486L47.9997 44.8967L53.6483 39.2481L51.9517 37.5515L49.1998 40.3034V38.4C49.1998 36.4151 50.8149 34.8 52.7998 34.8H56.3998C59.7084 34.8 62.3998 32.1086 62.3998 28.8V26.4H71.9998L71.9995 8.4ZM56.3995 6H61.1995V8.4H56.3995V6ZM68.3995 22.8H56.3995V20.4H68.3995V22.8ZM68.3995 18H56.3995V15.6H68.3995V18ZM68.3995 13.2H56.3995V10.8H68.3995V13.2Z" fill="#FAFAFA"/>
<path d="M39.9509 49.5513L41.648 51.2484L35.9994 56.8965L30.3507 51.2484L32.0479 49.5513L34.7992 52.3032V45.9502L7.19922 53.9998L35.9992 62.3998L64.7992 53.9998L37.1992 45.9502V52.3032L39.9509 49.5513Z" fill="#FAFAFA"/>
<path d="M36.0004 45.5998L37.2004 45.9502V26.4005H45.6004V8.40049H37.2004V0.000488281H26.4004V26.4005H34.8004V45.9502L36.0004 45.5998ZM37.2004 22.7998H34.8004V20.3998H37.2004V22.7998ZM42.0004 22.7998H39.6004V20.3998H42.0004V22.7998ZM30.0004 5.99984H34.8004V8.39984H30.0004V5.99984ZM30.0004 10.7998H42.0004V13.1998H30.0004V10.7998ZM30.0004 15.5998H42.0004V17.9998H30.0004V15.5998ZM32.4004 22.7998H30.0004V20.3998H32.4004V22.7998Z" fill="#FAFAFA"/>
<path d="M9.59973 28.8C9.59973 32.1086 12.2912 34.8 15.5997 34.8H19.1997C21.1846 34.8 22.7997 36.4151 22.7997 38.4V40.3034L20.0484 37.552L18.3518 39.2486L23.9999 44.8967L29.6485 39.2481L27.9519 37.5515L25.2 40.3034V38.4C25.2 35.0914 22.5086 32.4 19.2 32.4H15.6C13.6151 32.4 12 30.7849 12 28.8V26.4H19.2V8.4H10.8V0H0V26.4H9.6L9.59973 28.8ZM3.59973 6H8.39973V8.4H3.59973V6ZM3.59973 10.8H15.5997V13.2H3.59973V10.8ZM3.59973 15.6H15.5997V18H3.59973V15.6ZM3.59973 20.4H15.5997V22.8H3.59973V20.4Z" fill="#FAFAFA"/>
<path d="M39.5996 6.0002H44.3996L39.5996 1.2002V6.0002Z" fill="#FAFAFA"/>
</svg>
