<svg width="32" height="32" viewBox="0 0 32 32" fill="none" xmlns="http://www.w3.org/2000/svg">
<rect width="32" height="32" rx="16" fill="white"/>
<path d="M16.8363 17.2471C18.6591 17.2471 19.7781 16.7305 19.7781 16.3602V15.2373C19.1879 15.6671 17.9879 15.8953 16.8363 15.8953C15.6847 15.8953 14.4848 15.6673 13.8945 15.2373V16.3602C13.8945 16.7307 15.0137 17.2471 16.8363 17.2471Z" fill="#A72037"/>
<path d="M20.7637 8.05859H24.3211V8.88281H20.7637V8.05859Z" fill="#A72037"/>
<path d="M20.1523 14.1681H22.7303V11.3203H22.3553V13.793H20.1523V14.1681Z" fill="#A72037"/>
<path d="M13.8945 13.5088V14.6336C13.8945 15.0038 15.0137 15.5204 16.8363 15.5204C18.6591 15.5204 19.7781 15.0038 19.7781 14.6336V13.5088C19.1879 13.9386 17.9879 14.1668 16.8363 14.1668C15.6847 14.1666 14.4848 13.9387 13.8945 13.5088Z" fill="#A72037"/>
<path d="M20.7637 9.25781H24.3211V10.9451H20.7637V9.25781Z" fill="#A72037"/>
<path d="M21.4414 21.0557H24.9995V21.8797H21.4414V21.0557Z" fill="#A72037"/>
<path d="M20.1522 17.9014V18.0892C20.1522 18.1542 20.138 18.2162 20.1172 18.2763H23.0324V20.6811H23.4074V17.9014L20.1522 17.9014Z" fill="#A72037"/>
<path d="M21.4414 22.2549H24.9995V23.9422H21.4414V22.2549Z" fill="#A72037"/>
<path d="M7 20.0244H10.5577V20.8486H7V20.0244Z" fill="#A72037"/>
<path d="M8.9668 9.6416H12.5245V11.3289H8.9668V9.6416Z" fill="#A72037"/>
<path d="M13.8945 12.9044C13.8945 13.2747 15.0137 13.7913 16.8363 13.7913C18.6591 13.7913 19.7781 13.2747 19.7781 12.9044C19.7781 12.5342 18.6589 12.0176 16.8363 12.0176C15.0137 12.0176 13.8945 12.5342 13.8945 12.9044Z" fill="#A72037"/>
<path d="M14.8476 19.1094V21.2803H10.9336V21.6553H15.2226V19.1967C15.0934 19.1705 14.9673 19.1419 14.8475 19.1094L14.8476 19.1094Z" fill="#A72037"/>
<path d="M8.9668 8.44238H12.5245V9.26646H8.9668V8.44238Z" fill="#A72037"/>
<path d="M7 21.2236H10.5577V22.9108H7V21.2236Z" fill="#A72037"/>
<path d="M19.7781 18.0885V16.9639C19.1879 17.3938 17.9879 17.6218 16.8363 17.6218C15.6847 17.6218 14.4848 17.3939 13.8945 16.9639V18.0885C13.8945 18.459 15.0137 18.9754 16.8363 18.9754C18.6591 18.9754 19.7781 18.4589 19.7781 18.0885Z" fill="#A72037"/>
<path d="M12.8984 10.0732H14.8461V11.8847C14.9659 11.8523 15.0919 11.8237 15.2211 11.7975L15.2212 9.69824H12.8984L12.8984 10.0732Z" fill="#A72037"/>
</svg>
