<svg width="32" height="32" viewBox="0 0 32 32" fill="none" xmlns="http://www.w3.org/2000/svg">
<rect width="32" height="32" rx="16" fill="white"/>
<path d="M24.6086 7C24.5099 7.00306 24.4159 7.04383 24.347 7.1145L18.9702 12.4912L15.4874 9.00842C15.3719 8.89341 15.2175 8.82223 15.0549 8.81068H15.0534L9.12214 8.38699L9.12826 8.38851C9.10601 8.38631 9.08341 8.38546 9.05997 8.38546H9.05232C8.94801 8.38919 8.84965 8.43523 8.78034 8.51338C8.55235 8.6374 8.37397 8.84211 8.39385 9.11546L8.81754 15.048C8.82876 15.2119 8.90044 15.3652 9.01529 15.4805L12.4981 18.9633L7.12441 24.337C6.75084 24.6956 7.30381 25.2488 7.66243 24.875L24.8847 7.6528C25.1322 7.41072 24.9541 6.99075 24.6083 7.00027L24.6086 7ZM12.2395 11.015C12.5726 11.0152 12.892 11.1476 13.1274 11.3832C13.3631 11.6186 13.4954 11.938 13.4956 12.2712C13.4958 12.6045 13.3636 12.9242 13.128 13.16C12.8925 13.396 12.5728 13.5285 12.2394 13.5287C11.9058 13.5288 11.5859 13.3965 11.3499 13.1605C11.1141 12.9247 10.9816 12.6047 10.982 12.2712C10.9821 11.9379 11.1146 11.6181 11.3504 11.3827C11.5864 11.1471 11.9061 11.0149 12.2395 11.015ZM20.0408 13.5615L13.5685 20.0337L16.8566 23.3218C17.2373 23.7025 17.8613 23.7025 18.242 23.3218L23.3287 18.2352C23.7094 17.8544 23.7094 17.2304 23.3287 16.8498L20.0406 13.5617L20.0408 13.5615Z" fill="#A72037"/>
</svg>
