<svg width="72" height="72" viewBox="0 0 72 72" fill="none" xmlns="http://www.w3.org/2000/svg">
<path d="M23.1433 51.4281C23.1433 55.6887 19.6897 59.1423 15.4291 59.1423C11.1685 59.1423 7.71484 55.6887 7.71484 51.4281C7.71484 47.1675 11.1685 43.7139 15.4291 43.7139C19.6897 43.7139 23.1433 47.1675 23.1433 51.4281Z" fill="#FAFAFA"/>
<path d="M20.5438 59.1426H10.3133C4.62575 59.1426 0 63.7557 0 69.4282C0 70.8494 1.15024 71.9996 2.57141 71.9996H28.2855C29.7067 71.9996 30.857 70.8494 30.857 69.4282C30.857 63.7557 26.2314 59.1426 20.5437 59.1426H20.5438Z" fill="#FAFAFA"/>
<path d="M56.5714 41.1427H43.7144V36.7879C44.5558 36.3827 45.3629 35.9172 46.128 35.3857L47.6082 36.2472C48.1994 36.5939 48.9077 36.688 49.5666 36.5084C50.2284 36.3316 50.792 35.8971 51.1324 35.3019L56.231 26.3949C56.9318 25.1695 56.5151 23.6077 55.2942 22.8965L53.8013 22.0263C53.8433 21.5379 53.8639 21.0546 53.8639 20.5713C53.8639 20.088 53.8438 19.6047 53.8025 19.1163L55.2954 18.2461C56.5157 17.5356 56.9324 15.9737 56.2321 14.7477L51.1335 5.84077C50.7932 5.24555 50.2295 4.81105 49.5677 4.63427C48.9111 4.45864 48.2017 4.54875 47.6094 4.89543L46.1291 5.75697C45.3496 5.21571 44.5282 4.73873 43.6697 4.32776L43.6691 2.57141C43.6691 1.15139 42.5177 0 41.0977 0H30.9027C29.4827 0 28.3313 1.15139 28.3313 2.57141V4.32776C27.4726 4.73816 26.6512 5.21513 25.8718 5.75697L24.3916 4.89543C23.8004 4.54874 23.0909 4.45748 22.4332 4.63427C21.7702 4.81163 21.2066 5.24556 20.8662 5.84077L15.7682 14.7483C15.0663 15.9737 15.4841 17.5356 16.705 18.2467L18.1967 19.1169C18.1553 19.6048 18.1353 20.0881 18.1353 20.5713C18.1353 21.0546 18.1553 21.5379 18.1967 22.0264L16.705 22.8965C15.4847 23.6071 15.0663 25.1689 15.7682 26.3949L20.8656 35.3019C21.206 35.8971 21.7697 36.3316 22.4314 36.5084C23.0915 36.6892 23.8009 36.5939 24.3898 36.2472L25.8701 35.3857C26.6357 35.9172 27.4433 36.3833 28.2854 36.7891L28.286 48.8569H25.7146V53.9997H30.8574C32.2786 53.9997 33.4288 52.8495 33.4288 51.4283V41.1427H38.5717V43.7141C38.5717 45.1353 39.7219 46.2855 41.1431 46.2855H54.0001V48.8569H59.143V43.7141C59.143 42.2929 57.9927 41.1427 56.5715 41.1427L56.5714 41.1427ZM31.016 20.5714C31.016 17.7353 33.3228 15.4286 36.1588 15.4286C38.9949 15.4286 41.3016 17.7353 41.3016 20.5714C41.3016 23.4074 38.9949 25.7142 36.1588 25.7142C33.3233 25.7142 31.016 23.4074 31.016 20.5714Z" fill="#FAFAFA"/>
<path d="M69.429 53.9996C69.429 52.5796 68.2787 51.4282 66.8576 51.4282H46.2863C44.8651 51.4282 43.7148 52.5796 43.7148 53.9996V64.2853H69.429V53.9996Z" fill="#FAFAFA"/>
<path d="M69.4281 71.9998H43.714C42.2928 71.9998 41.1426 70.8484 41.1426 69.4283C41.1426 68.0083 42.2928 66.8569 43.714 66.8569H69.4281C70.8493 66.8569 71.9995 68.0083 71.9995 69.4283C71.9995 70.8484 70.8493 71.9998 69.4281 71.9998Z" fill="#FAFAFA"/>
</svg>
