<svg width="72" height="75" viewBox="0 0 72 75" fill="none" xmlns="http://www.w3.org/2000/svg">
<path d="M20.8499 74.089C20.7395 74.1833 20.6202 74.2682 20.4884 74.3432C20.4332 74.3729 20.3732 74.3958 20.3165 74.4224C20.2414 74.4599 20.1649 74.4995 20.0836 74.5276C20.0086 74.5532 19.9304 74.5693 19.8528 74.5907C19.7825 74.6089 19.7163 74.6303 19.6434 74.6443C19.4954 74.6678 19.3433 74.6829 19.1917 74.6829C19.1891 74.6829 19.187 74.6839 19.1834 74.6839C19.0281 74.6839 18.8739 74.6699 18.7218 74.6443C18.6546 74.6323 18.5937 74.611 18.5291 74.5948C18.4468 74.5735 18.3619 74.5573 18.2816 74.5287C18.2066 74.5026 18.1368 74.4651 18.0665 74.4307C18.0029 74.401 17.9383 74.3766 17.8768 74.3422C17.7476 74.2682 17.6263 74.1833 17.5169 74.089L8.73941 66.53C7.81994 65.7381 7.81994 64.455 8.73941 63.6637C9.19837 63.2673 9.80059 63.0698 10.4034 63.0698C11.0061 63.0698 11.6089 63.2673 12.0678 63.6637L16.8282 67.7636V27.9652C16.8282 26.8462 17.8826 25.9383 19.1823 25.9383C20.4816 25.9383 21.5359 26.8463 21.5359 27.9652V67.7636L26.3933 63.5804C26.8543 63.1839 27.4534 62.9865 28.0572 62.9865C28.6611 62.9865 29.2601 63.1839 29.7216 63.5804C30.6395 64.3722 30.6395 65.6554 29.7216 66.4466L20.8499 74.089ZM38.0125 26.3849H58.5838C60.8067 26.3849 62.6087 28.1869 62.6087 30.4098C62.6087 32.6327 60.8067 34.4347 58.5838 34.4347H38.0125C35.7896 34.4347 33.9875 32.6327 33.9875 30.4098C33.9875 28.1869 35.7896 26.3849 38.0125 26.3849ZM38.0125 39.354H54.1121C56.335 39.354 58.137 41.156 58.137 43.3789C58.137 45.6018 56.335 47.4038 54.1121 47.4038H38.0125C35.7896 47.4038 33.9875 45.6018 33.9875 43.3789C33.9875 41.156 35.7896 39.354 38.0125 39.354ZM38.0125 52.323H49.6401C51.8625 52.323 53.6651 54.125 53.6651 56.3479C53.6651 58.5708 51.8625 60.3728 49.6401 60.3728H38.0125C35.7896 60.3728 33.9875 58.5708 33.9875 56.3479C33.9875 54.125 35.7896 52.323 38.0125 52.323ZM38.0125 65.2921H45.1677C47.3906 65.2921 49.1926 67.0941 49.1926 69.317C49.1926 71.5399 47.3906 73.3419 45.1677 73.3419H38.0125C35.7896 73.3419 33.9875 71.5399 33.9875 69.317C33.9875 67.0941 35.7896 65.2921 38.0125 65.2921ZM9.89544 0H62.1046C67.5694 0 72 4.4046 72 9.83862C72 15.2721 67.5693 19.6768 62.1046 19.6768H9.89544C4.4306 19.6768 0 15.2723 0 9.83862C0 4.4046 4.43073 0 9.89544 0ZM11.7412 12.4449L14.8731 15.5587C15.0539 15.739 15.3477 15.739 15.5285 15.5587L16.1838 14.907C16.3651 14.7273 16.3651 14.4355 16.1838 14.2553L13.0524 11.1415C14.0678 9.53957 13.8735 7.39642 12.47 6.00077C10.841 4.38107 8.19972 4.38107 6.57082 6.00077C4.94178 7.62047 4.94178 10.2465 6.57082 11.8661C7.97473 13.2617 10.13 13.4545 11.7413 12.4449L11.7412 12.4449ZM11.4276 10.83C10.3492 11.9027 8.59986 11.9027 7.52095 10.83C6.44204 9.7574 6.44207 8.01848 7.52095 6.94584C8.59984 5.87319 10.3492 5.87319 11.4276 6.94584C12.5065 8.01848 12.5065 9.7574 11.4276 10.83Z" fill="#FAFAFA"/>
</svg>
