<svg width="72" height="72" viewBox="0 0 72 72" fill="none" xmlns="http://www.w3.org/2000/svg">
<path d="M24.0756 13.5979C24.0756 16.6459 21.7121 19.1171 18.7969 19.1171C15.881 19.1171 13.5176 16.6459 13.5176 13.5979C13.5176 10.5498 15.881 8.07861 18.7969 8.07861C21.7121 8.07861 24.0756 10.5498 24.0756 13.5979Z" fill="#FAFAFA"/>
<path d="M21.5956 19.2769L18.8762 21.3564L16.1568 19.2769C15.3567 19.437 8.95827 21.0366 8.39807 25.9956C8.31829 26.4754 8.5582 26.9553 8.95825 27.2755C10.1578 28.0756 13.1177 29.6753 18.8768 29.6753C24.6358 29.6753 27.5952 28.0757 28.7953 27.2755C29.1953 26.9558 29.4353 26.4754 29.3555 25.9956C28.7144 21.0366 22.3153 19.4364 21.5956 19.2769H21.5956Z" fill="#FAFAFA"/>
<path d="M59.5905 34.7146C59.5905 37.0116 57.8358 38.874 55.6715 38.874C53.5067 38.874 51.752 37.0116 51.752 34.7146C51.752 32.4175 53.5067 30.5557 55.6715 30.5557C57.8357 30.5557 59.5905 32.4175 59.5905 34.7146Z" fill="#FAFAFA"/>
<path d="M57.7512 39.0337L55.7515 40.6333L53.7518 39.0337C53.1916 39.1938 48.3927 40.3934 47.9129 44.073C47.8331 44.4731 47.9927 44.7928 48.313 45.0327C49.1928 45.6726 51.4324 46.7924 55.7514 46.7924C60.0705 46.7924 62.3107 45.5928 63.1899 45.0327C63.5097 44.7928 63.6698 44.4725 63.59 44.073C63.1102 40.3131 58.3107 39.1134 57.7511 39.0337H57.7512Z" fill="#FAFAFA"/>
<path d="M26.6354 52.6316C26.6354 54.9287 24.8807 56.7911 22.7159 56.7911C20.5517 56.7911 18.7969 54.9287 18.7969 52.6316C18.7969 50.3346 20.5516 48.4722 22.7159 48.4722C24.8807 48.4722 26.6354 50.3346 26.6354 52.6316Z" fill="#FAFAFA"/>
<path d="M24.7961 56.8706L22.7964 58.4702L20.7967 56.8706C20.2365 57.0307 15.4376 58.2303 14.9578 61.9099C14.878 62.31 15.0376 62.6297 15.3579 62.8696C16.2378 63.5096 18.4774 64.6293 22.7964 64.6293C27.1154 64.6293 29.3556 63.4297 30.2349 62.8696C30.5546 62.6297 30.7147 62.3094 30.6349 61.9099C30.1551 58.2302 25.3556 57.0307 24.796 56.8706H24.7961Z" fill="#FAFAFA"/>
<path d="M71.8281 61.67C71.1083 59.0305 68.4686 57.4307 65.829 57.9903L63.1895 51.3514C67.3489 48.7916 70.0683 44.2326 70.0683 39.1134C70.0683 31.1946 63.5896 24.7158 55.6707 24.7158C50.6314 24.7158 46.1521 27.3554 43.5928 31.275L35.9138 27.1156C37.1134 24.6361 37.8336 21.8363 37.8336 18.8769C37.8336 16.8772 37.5139 14.8776 36.874 13.038L44.9525 10.8782C45.9925 12.4778 47.9921 13.4381 50.0717 13.1178C52.8715 12.7178 54.7907 10.0782 54.3907 7.27895C53.9906 4.47912 51.351 2.55987 48.5518 2.95994C45.7519 3.35999 43.9125 5.99959 44.2327 8.719L35.9941 10.9581C33.0347 4.47927 26.4755 0 18.8769 0C8.47847 0 0 8.47847 0 18.8769C0 29.2753 8.47847 37.7538 18.8769 37.7538H19.3567L19.9967 43.5129C13.4375 44.7928 8.39875 50.6317 8.39875 57.5904C8.39875 65.5093 14.8775 71.9881 22.7964 71.9881C30.7152 71.9881 37.194 65.5093 37.194 57.5904C37.194 55.4306 36.7142 53.3511 35.8343 51.5116L43.6729 47.1121C46.2328 50.9514 50.6316 53.5112 55.5911 53.5112C57.5109 53.5112 59.3505 53.1112 61.1103 52.3914L63.6702 58.9506C62.0706 60.1502 61.2704 62.3101 61.8306 64.3895C62.5504 67.1089 65.4299 68.7085 68.1493 67.9887C70.948 67.269 72.5482 64.3895 71.8279 61.6701L71.8281 61.67ZM2.71938 18.877C2.71938 9.91866 9.99833 2.7197 18.8767 2.7197C27.7551 2.7197 35.0341 9.99865 35.0341 18.877C35.0341 27.7555 27.7551 35.0344 18.8767 35.0344C9.99833 35.0344 2.71938 27.8353 2.71938 18.877ZM22.7961 69.2688C16.3173 69.2688 11.1177 63.9895 11.1177 57.5904C11.1177 51.1913 16.397 45.912 22.7961 45.912C29.1946 45.9126 34.4739 51.1913 34.4739 57.5904C34.4739 63.9895 29.1946 69.2688 22.7961 69.2688ZM34.7139 49.592C32.154 45.7528 27.7551 43.1929 22.7957 43.1929H22.2355L21.5961 37.594C27.1153 36.7939 31.8344 33.5946 34.7936 29.1155L42.5524 33.275C41.7523 35.0347 41.2724 37.0344 41.2724 39.1139C41.2724 41.2737 41.7523 43.3532 42.6321 45.1927L34.7139 49.592ZM43.9925 39.1139C43.9925 32.6351 49.2718 27.4355 55.6708 27.4355C62.0699 27.4355 67.3492 32.7148 67.3492 39.1139C67.3492 45.513 62.0699 50.7922 55.6708 50.7922C49.2718 50.7922 43.9925 45.5928 43.9925 39.1139Z" fill="#FAFAFA"/>
</svg>
