<svg width="32" height="32" viewBox="0 0 32 32" fill="none" xmlns="http://www.w3.org/2000/svg">
<rect width="32" height="32" rx="16" fill="white"/>
<path d="M16 4.25586C11.5247 4.25586 7 5.36845 7 7.84098V24.1597C7 26.6322 11.5247 27.7448 16 27.7448C20.4753 27.7448 25 26.6322 25 24.1597V7.84098C25 5.36845 20.4753 4.25586 16 4.25586ZM16 6.30806C20.3516 6.30806 22.7005 7.42065 22.9478 7.8163C22.6758 8.28612 20.327 9.37404 16 9.37404C11.6236 9.37404 9.29945 8.26144 9.0522 7.84111C9.34885 7.39597 11.673 6.30801 16 6.30801V6.30806ZM9.0522 10.264C10.7829 11.0553 13.4038 11.4508 16 11.4508C18.5962 11.4508 21.217 11.08 22.9478 10.264V13.2559C22.75 13.7008 20.4011 14.8383 16 14.8383C11.5742 14.8383 9.22527 13.7008 9.0522 13.3054V10.264ZM9.0522 15.7036C10.7829 16.4949 13.4038 16.8903 16 16.8903C18.5962 16.8903 21.217 16.5195 22.9478 15.7036V18.6706C22.75 19.1155 20.4011 20.253 15.9753 20.253C11.5495 20.253 9.20055 19.1155 9.02747 18.7201V15.7036H9.0522ZM16 25.6926C11.5742 25.6926 9.22527 24.5551 9.0522 24.1597V21.1185C10.7829 21.9098 13.4038 22.3053 16 22.3053C18.6208 22.3053 21.217 21.9345 22.9725 21.1185V24.0855C22.7747 24.5553 20.4256 25.6925 16 25.6925V25.6926Z" fill="#A72037"/>
</svg>
